<?xml version="1.0" encoding="UTF-8" standalone="no"?>
<!DOCTYPE svg PUBLIC "-//W3C//DTD SVG 1.1//EN" "http://www.w3.org/Graphics/SVG/1.1/DTD/svg11.dtd">
<svg width="100%" height="100%" viewBox="0 0 1182 1182" version="1.1" xmlns="http://www.w3.org/2000/svg" xmlns:xlink="http://www.w3.org/1999/xlink" xml:space="preserve" xmlns:serif="http://www.serif.com/" style="fill-rule:evenodd;clip-rule:evenodd;stroke-linejoin:round;stroke-miterlimit:2;">
    <g transform="matrix(1.03031,0,0,1.03031,-17.8986,-35.7971)">
        <path d="M247.343,377.953L247.343,519.685L236.22,519.685C186.586,519.685 146.289,559.982 146.289,609.617L146.289,1091.17C146.289,1140.81 186.586,1181.1 236.22,1181.1L944.882,1181.1C994.517,1181.1 1034.81,1140.81 1034.81,1091.17L1034.81,609.617C1034.81,559.982 994.517,519.685 944.882,519.685L933.76,519.685L933.76,377.953C933.76,188.531 779.973,34.744 590.551,34.744C401.129,34.744 247.343,188.531 247.343,377.953ZM543.307,874.025C515.075,857.68 496.063,827.14 496.063,792.195C496.063,740.045 538.402,697.707 590.551,697.707C642.701,697.707 685.039,740.045 685.039,792.195C685.039,827.14 666.028,857.68 637.795,874.025L637.795,947.638C637.795,973.713 616.626,994.882 590.551,994.882C564.476,994.882 543.307,973.713 543.307,947.638L543.307,874.025ZM814.272,519.685L814.272,377.953C814.272,254.478 714.026,154.232 590.551,154.232C467.076,154.232 366.831,254.478 366.831,377.953L366.831,519.685L814.272,519.685ZM247.343,377.953L247.343,380.542C247.343,379.679 247.343,378.816 247.343,377.953Z"/>
    </g>
</svg>
